<?xml version="1.0" encoding="utf-8"?>
<!-- Generator: Adobe Illustrator 27.3.1, SVG Export Plug-In . SVG Version: 6.00 Build 0)  -->
<svg version="1.1" id="Layer_1" xmlns="http://www.w3.org/2000/svg" xmlns:xlink="http://www.w3.org/1999/xlink" x="0px" y="0px"
	 viewBox="0 0 189 296" style="enable-background:new 0 0 189 296;" xml:space="preserve">
<style type="text/css">
	.st0{fill:#527E90;}
	.st1{fill:#FFFFFF;}
	.st2{fill:#102048;}
	.st3{fill:#5B718F;}
	.st4{fill:#F9B384;}
	.st5{fill:#E28B6D;}
	.st6{fill:#709FA3;}
	.st7{opacity:0.8;}
	.st8{fill:#FBC343;}
	.st9{opacity:0.4;fill:#EB5D60;enable-background:new    ;}
	.st10{fill:#1F3C88;}
</style>
<path class="st0" d="M90.5,94.5c0.6-3.4-1.6-6.7-5-7.3s-6.7,1.6-7.3,5c-0.6,3.4,1.6,6.7,5,7.3C86.6,100.2,89.9,97.9,90.5,94.5z"/>
<path class="st0" d="M93.5,106.3c0.4-1.9-0.9-3.8-2.8-4.1c-1.9-0.4-3.8,0.9-4.1,2.8c-0.4,1.9,0.9,3.8,2.8,4.1
	C91.3,109.5,93.2,108.3,93.5,106.3z"/>
<path class="st0" d="M162.2,79.8c9.7-9.7,28.6-43.4,19-53.1c-9.7-9.7-147.8-9.7-157.5,0C14.1,36.4,0.7,76.3,10.3,86
	C20,95.6,152.6,89.5,162.2,79.8z"/>
<path class="st1" d="M56.4,58h-1.6l-3.5-5.3V58h-1.6v-7.8h1.6l3.5,5.4v-5.4h1.6V58z M60.6,58.1c-0.6,0-1.1-0.1-1.6-0.4
	c-0.5-0.3-0.9-0.6-1.1-1.1c-0.3-0.5-0.4-1-0.4-1.7c0-0.6,0.1-1.2,0.4-1.7c0.3-0.5,0.7-0.9,1.2-1.1c0.5-0.3,1-0.4,1.6-0.4
	c0.6,0,1.1,0.1,1.6,0.4c0.5,0.3,0.9,0.6,1.1,1.1c0.3,0.5,0.4,1,0.4,1.7c0,0.6-0.1,1.2-0.4,1.7c-0.3,0.5-0.7,0.9-1.2,1.1
	C61.8,58,61.2,58.1,60.6,58.1z M60.6,56.8c0.3,0,0.5-0.1,0.8-0.2c0.3-0.1,0.5-0.3,0.6-0.6c0.1-0.3,0.2-0.6,0.2-1
	c0-0.6-0.2-1-0.5-1.4c-0.3-0.3-0.7-0.5-1.1-0.5c-0.4,0-0.8,0.2-1.1,0.5c-0.3,0.3-0.4,0.8-0.4,1.4c0,0.6,0.1,1,0.4,1.4
	C59.8,56.6,60.2,56.8,60.6,56.8z M70.4,50.2c0.8,0,1.5,0.2,2.2,0.5c0.6,0.3,1.1,0.8,1.4,1.4c0.3,0.6,0.5,1.3,0.5,2.1
	c0,0.8-0.2,1.5-0.5,2.1c-0.3,0.6-0.8,1-1.4,1.4c-0.6,0.3-1.3,0.5-2.2,0.5h-2.7v-7.8H70.4z M70.4,56.7c0.8,0,1.5-0.2,1.9-0.7
	c0.4-0.4,0.7-1.1,0.7-1.9c0-0.8-0.2-1.4-0.7-1.9c-0.4-0.5-1.1-0.7-1.9-0.7h-1.1v5.1H70.4z M75.3,54.9c0-0.6,0.1-1.2,0.4-1.7
	c0.3-0.5,0.6-0.9,1-1.1c0.4-0.3,0.9-0.4,1.4-0.4c0.5,0,0.9,0.1,1.2,0.3c0.3,0.2,0.6,0.4,0.8,0.7v-0.9h1.6V58h-1.6v-0.9
	c-0.2,0.3-0.5,0.5-0.8,0.7c-0.3,0.2-0.8,0.3-1.2,0.3c-0.5,0-1-0.1-1.4-0.4c-0.4-0.3-0.8-0.6-1-1.1C75.4,56.1,75.3,55.5,75.3,54.9z
	 M80.2,54.9c0-0.4-0.1-0.7-0.2-1c-0.1-0.3-0.3-0.5-0.6-0.6c-0.3-0.1-0.5-0.2-0.8-0.2c-0.3,0-0.6,0.1-0.8,0.2
	c-0.2,0.1-0.4,0.3-0.6,0.6c-0.1,0.3-0.2,0.6-0.2,1c0,0.4,0.1,0.7,0.2,1c0.2,0.3,0.4,0.5,0.6,0.6c0.3,0.1,0.5,0.2,0.8,0.2
	c0.3,0,0.6-0.1,0.8-0.2c0.3-0.1,0.5-0.4,0.6-0.6C80.1,55.6,80.2,55.3,80.2,54.9z M85.1,53.1v3c0,0.2,0,0.4,0.1,0.5
	c0.1,0.1,0.3,0.1,0.5,0.1h0.7V58h-1c-1.3,0-2-0.6-2-1.9v-3h-0.7v-1.3h0.7v-1.5h1.6v1.5h1.4v1.3H85.1z M87.2,54.9
	c0-0.6,0.1-1.2,0.4-1.7c0.3-0.5,0.6-0.9,1-1.1c0.4-0.3,0.9-0.4,1.4-0.4c0.5,0,0.9,0.1,1.2,0.3c0.3,0.2,0.6,0.4,0.8,0.7v-0.9h1.6V58
	h-1.6v-0.9c-0.2,0.3-0.5,0.5-0.8,0.7c-0.3,0.2-0.8,0.3-1.2,0.3c-0.5,0-1-0.1-1.4-0.4c-0.4-0.3-0.8-0.6-1-1.1
	C87.3,56.1,87.2,55.5,87.2,54.9z M92.1,54.9c0-0.4-0.1-0.7-0.2-1c-0.1-0.3-0.3-0.5-0.6-0.6c-0.3-0.1-0.5-0.2-0.8-0.2
	s-0.6,0.1-0.8,0.2c-0.2,0.1-0.4,0.3-0.6,0.6c-0.1,0.3-0.2,0.6-0.2,1c0,0.4,0.1,0.7,0.2,1c0.2,0.3,0.4,0.5,0.6,0.6
	c0.3,0.1,0.5,0.2,0.8,0.2c0.3,0,0.6-0.1,0.8-0.2c0.3-0.1,0.5-0.4,0.6-0.6C92,55.6,92.1,55.3,92.1,54.9z M100.7,53.1h-1.1V58H98v-4.9
	h-0.7v-1.3H98v-0.3c0-0.8,0.2-1.3,0.6-1.7c0.4-0.4,1.1-0.5,2-0.5v1.3c-0.4,0-0.6,0.1-0.8,0.2c-0.1,0.1-0.2,0.4-0.2,0.7v0.3h1.1V53.1
	z M104.4,58.1c-0.6,0-1.1-0.1-1.6-0.4c-0.5-0.3-0.9-0.6-1.1-1.1c-0.3-0.5-0.4-1-0.4-1.7c0-0.6,0.1-1.2,0.4-1.7
	c0.3-0.5,0.7-0.9,1.2-1.1c0.5-0.3,1-0.4,1.6-0.4c0.6,0,1.1,0.1,1.6,0.4c0.5,0.3,0.9,0.6,1.1,1.1c0.3,0.5,0.4,1,0.4,1.7
	c0,0.6-0.1,1.2-0.4,1.7c-0.3,0.5-0.7,0.9-1.2,1.1C105.6,58,105,58.1,104.4,58.1z M104.4,56.8c0.3,0,0.5-0.1,0.8-0.2
	c0.3-0.1,0.5-0.3,0.6-0.6c0.1-0.3,0.2-0.6,0.2-1c0-0.6-0.2-1-0.5-1.4c-0.3-0.3-0.7-0.5-1.1-0.5s-0.8,0.2-1.1,0.5
	c-0.3,0.3-0.4,0.8-0.4,1.4c0,0.6,0.1,1,0.4,1.4C103.6,56.6,104,56.8,104.4,56.8z M114.6,51.8V58h-1.6v-0.8c-0.2,0.3-0.5,0.5-0.8,0.6
	c-0.3,0.1-0.7,0.2-1,0.2c-0.5,0-0.9-0.1-1.3-0.3c-0.4-0.2-0.7-0.5-0.9-0.9c-0.2-0.4-0.3-0.9-0.3-1.4v-3.6h1.6v3.4
	c0,0.5,0.1,0.9,0.4,1.1c0.2,0.3,0.6,0.4,1,0.4c0.4,0,0.8-0.1,1-0.4c0.2-0.3,0.4-0.6,0.4-1.1v-3.4H114.6z M119.6,51.8
	c0.7,0,1.3,0.2,1.8,0.7c0.5,0.5,0.7,1.1,0.7,1.9V58h-1.6v-3.4c0-0.5-0.1-0.9-0.4-1.1c-0.2-0.3-0.6-0.4-1-0.4c-0.4,0-0.8,0.1-1,0.4
	c-0.2,0.3-0.4,0.6-0.4,1.1V58h-1.6v-6.2h1.6v0.8c0.2-0.3,0.5-0.5,0.8-0.6C118.9,51.8,119.2,51.8,119.6,51.8z M123.2,54.9
	c0-0.6,0.1-1.2,0.4-1.7c0.3-0.5,0.6-0.9,1-1.1c0.4-0.3,0.9-0.4,1.4-0.4c0.4,0,0.8,0.1,1.2,0.3c0.4,0.2,0.7,0.4,0.9,0.7v-2.9h1.6V58
	H128v-0.9c-0.2,0.3-0.5,0.6-0.8,0.7c-0.4,0.2-0.8,0.3-1.2,0.3c-0.5,0-1-0.1-1.4-0.4c-0.4-0.3-0.8-0.6-1-1.1
	C123.3,56.1,123.2,55.5,123.2,54.9z M128,54.9c0-0.4-0.1-0.7-0.2-1c-0.1-0.3-0.4-0.5-0.6-0.6c-0.3-0.1-0.5-0.2-0.8-0.2
	c-0.3,0-0.6,0.1-0.8,0.2c-0.2,0.1-0.4,0.3-0.6,0.6c-0.1,0.3-0.2,0.6-0.2,1c0,0.4,0.1,0.7,0.2,1c0.2,0.3,0.4,0.5,0.6,0.6
	c0.3,0.1,0.5,0.2,0.8,0.2c0.3,0,0.6-0.1,0.8-0.2c0.3-0.1,0.5-0.4,0.6-0.6C128,55.6,128,55.3,128,54.9z"/>
<path class="st2" d="M51.2,264.2l2.3,8.9c0.6,2.3,2.9,3.9,5.3,3.7c7.6-0.5,23.3-2.4,32.3-9l-2.6-12.9c-12.4-0.7-24,0-34.1,3.4
	C52,259.2,50.5,261.7,51.2,264.2z"/>
<path class="st1" d="M65.6,271.3c-0.1,0-0.2-0.1-0.3-0.2L62.2,260c0-0.2,0-0.3,0.2-0.4c0.2,0,0.3,0,0.4,0.2l3.1,11.1
	C66,271.1,65.9,271.3,65.6,271.3C65.7,271.3,65.7,271.3,65.6,271.3z"/>
<path class="st1" d="M72.3,269.8c-0.1,0-0.2-0.1-0.3-0.2l-3.1-11.1c0-0.2,0-0.3,0.2-0.4c0.2,0,0.3,0,0.4,0.2l3.1,11.1
	C72.7,269.6,72.6,269.8,72.3,269.8C72.4,269.8,72.3,269.8,72.3,269.8z"/>
<path class="st3" d="M80.1,216l-28.8,8.6L72.7,254l30.7,2.4l42.4-17.9l-16.1-24.3L80.1,216z"/>
<path class="st3" d="M115.7,220.1c63.4-18.8,73.5,37.3-25.3,47.5c-3.5-3.9-7.6-10.8-9.2-16.5l52.2-24.1L115.7,220.1z"/>
<path class="st4" d="M118.4,260.3c-3-1-5.8-2.8-5.8-2.8l-10.2,3.2l2.3,11.1l10.6,2.2C118.5,268,118.7,263.2,118.4,260.3z"/>
<path class="st1" d="M81.4,251.5l-0.5-0.8c10.9-6.3,38.8-21.5,62.5-26l0.2,0.9C120,230.1,92.2,245.2,81.4,251.5z"/>
<path class="st3" d="M80.1,216c-59-11.2-74.2,45.5,24.6,55.7c3.5-3.9,6.2-8.6,7.8-14.3c-15.2-10.2-32.2-19.8-50.8-29L80.1,216z"/>
<path class="st1" d="M112.3,257.9c-2.8-1.8-5.7-3.7-8.8-5.7c-15.5-10-33.1-21.4-48.1-27.9l0.4-0.8c15,6.5,32.7,17.9,48.2,28
	c3.1,2,6,3.9,8.8,5.7L112.3,257.9z"/>
<path class="st1" d="M36.8,244.2l-0.8-0.4c2.2-4,5.8-6.7,10.5-8l0.2,0.9C42.2,237.8,39,240.3,36.8,244.2z"/>
<path class="st1" d="M159.9,240.7c-2.1-3.8-5.4-6.3-10-7.6l0.2-0.9c4.8,1.3,8.3,4,10.5,8L159.9,240.7z"/>
<path class="st1" d="M99.2,271.3l-0.6-0.6c4.7-5.1,7.6-10.4,8.9-16.3l0.9,0.2C107,260.6,104,266.1,99.2,271.3z"/>
<path class="st2" d="M147.8,257c-7.6-4.7-22.2,3.4-25.9,3.8c-1.1,0.1-2.3-0.1-3.5-0.5c0.3,2.9,0.1,7.7-3.1,13.6l1.8,0.4
	c0,0,12.4,4.6,25.6,1.9C154.8,273.7,153.7,260.7,147.8,257z"/>
<path class="st1" d="M137.5,272.3C137.5,272.3,137.4,272.3,137.5,272.3c-0.3-0.1-0.3-0.2-0.3-0.4c0.9-2.8,1.3-8.4-1.3-12.2
	c-0.1-0.1-0.1-0.3,0.1-0.4c0.1-0.1,0.3-0.1,0.4,0.1c2.7,3.9,2.3,9.8,1.4,12.7C137.7,272.2,137.6,272.3,137.5,272.3z"/>
<path class="st1" d="M131.6,273.4C131.5,273.4,131.5,273.4,131.6,273.4c-0.3-0.1-0.3-0.2-0.3-0.4c0.9-2.8,1.3-8.4-1.3-12.2
	c-0.1-0.1-0.1-0.3,0.1-0.4c0.1-0.1,0.3-0.1,0.4,0.1c2.7,3.9,2.3,9.8,1.4,12.7C131.8,273.3,131.7,273.4,131.6,273.4z"/>
<path class="st4" d="M69.7,142.9c0,0,14.9-12.6,14.3-15c-0.4-1.7-4.6,0.8-4.6,0.8s5.9-7,5.6-7.9c-0.5-1.5-4.6,1.3-4.6,1.3
	s2.8-4,1.4-4.6c-1.3-0.6-4.2,1.8-4.2,1.8s1.7-2.2,0.9-2.8c-0.8-0.6-4.2,1.8-4.2,1.8s1.2-2.8-1.4-1.7c-2.6,1.1-20.8,17.8-20.8,17.8
	L69.7,142.9z"/>
<path class="st5" d="M75.8,127.9c-0.1,0-0.1,0-0.2-0.1c-2.5-2.3-3.7-2.9-6.5-3.8c-0.2,0-0.2-0.2-0.2-0.4c0-0.2,0.2-0.2,0.4-0.2
	c2.9,0.9,4.1,1.5,6.7,3.9c0.1,0.1,0.1,0.3,0,0.4C75.9,127.9,75.8,127.9,75.8,127.9z"/>
<path class="st5" d="M71.3,134.8C71.2,134.8,71.2,134.8,71.3,134.8c-0.2,0-0.3-0.2-0.3-0.3c0.3-2.1,1-3.4,2-4
	c0.9-0.5,2.1-0.5,3.5,0.1c0.1,0.1,0.2,0.2,0.2,0.4c-0.1,0.1-0.2,0.2-0.4,0.2c-1.2-0.5-2.2-0.6-3-0.2c-0.9,0.5-1.4,1.7-1.7,3.6
	C71.6,134.7,71.4,134.8,71.3,134.8z"/>
<path class="st5" d="M70.6,122.1c-0.1,0-0.2,0-0.2-0.1c-0.1-0.1-0.1-0.3,0-0.4l3.7-3.5c0.1-0.1,0.3-0.1,0.4,0c0.1,0.1,0.1,0.3,0,0.4
	l-3.7,3.5C70.7,122.1,70.6,122.1,70.6,122.1z"/>
<path class="st5" d="M74,123.3c-0.1,0-0.1,0-0.2-0.1c-0.1-0.1-0.1-0.3,0-0.4l3.6-3.7c0.1-0.1,0.3-0.1,0.4,0c0.1,0.1,0.1,0.3,0,0.4
	l-3.6,3.7C74.2,123.3,74.1,123.3,74,123.3z"/>
<path class="st5" d="M77.6,125.4c-0.1,0-0.1,0-0.2-0.1c-0.1-0.1-0.1-0.3,0-0.4l2.8-3c0.1-0.1,0.3-0.1,0.4,0c0.1,0.1,0.1,0.3,0,0.4
	l-2.8,3C77.7,125.4,77.6,125.4,77.6,125.4z"/>
<path class="st6" d="M125.8,227.4l-54.3,2.1l-6-49.5c0,0,18.2-17.2,25.2-23.6l11.8-0.6C139.1,172.5,133.1,193.3,125.8,227.4z"/>
<path class="st6" d="M102.4,155.8c0,0,41.9,3.6,55.1,32.3c12.9,28.1-40.2,38.1-40.2,38.1L102.4,155.8z"/>
<path class="st6" d="M54.5,162l17.3-21.1L55.7,131c-6.7,4.7-19.8,15.4-30.9,27.4c-2.4,2.7-4.3,5.8-5.3,9.2c-0.8,2.9-1,5.8-0.5,8.6
	c1.2,7.4,7,13,14.7,14c6.6,0.8,31.8-1.2,52.2-7.2l6-23.2C88.8,158.1,65.9,157.8,54.5,162z"/>
<g class="st7">
	<path class="st1" d="M137.4,167.2c0.1,0,0.2,0,0.3-0.1c-0.2-0.1-0.4-0.2-0.6-0.3c-3.1,0.7-6.2,1.4-9.4,1.8c-1.9,0.2-8.2,0.6-10-3.5
		c-0.9-2.1-0.2-4.4,0.8-6c-0.1,0-0.3-0.1-0.5-0.1c-1.1,1.7-1.7,4.1-0.8,6.3c2,4.5,8.5,4,10.4,3.8C131,168.7,134.3,167.9,137.4,167.2
		z"/>
	<path class="st1" d="M157,199.6c-2-0.8-4.1-1.6-6.2-1.4c-3.8,0.4-7.1,4.1-7.3,8.4c-0.1,2.9,1,6,3.1,8.7c0.1-0.1,0.3-0.2,0.4-0.2
		c-2.1-2.6-3.2-5.6-3-8.4c0.2-4.1,3.3-7.6,6.9-8c2.1-0.2,4,0.6,6,1.3c0.7,0.3,1.5,0.6,2.2,0.8c0-0.1,0.1-0.3,0.1-0.4
		C158.4,200.2,157.7,199.9,157,199.6z"/>
	<path class="st1" d="M51.2,185.3c-2.6-2.2-6.7-2.7-11.2-1.6c-4,1-7.4,3.1-9.7,5.8c0.1,0,0.3,0.1,0.5,0.1c2.3-2.6,5.6-4.5,9.4-5.5
		c4.3-1.1,8.3-0.6,10.8,1.5c1.2,1,2,2.3,2.6,3.7c0.1,0,0.3,0,0.5,0C53.4,187.7,52.5,186.3,51.2,185.3z"/>
	<path class="st1" d="M27.5,155.5c4.9-1.2,9.7-2.9,14.1-5.5c1.7-1,3.6-2.2,4.9-4c1.4-1.9,1.9-4.2,1.2-6.1c-0.2-0.7-0.7-1.4-1.2-1.9
		c-0.1,0.1-0.2,0.2-0.3,0.3c0.5,0.5,0.9,1.1,1.1,1.8c0.6,1.8,0.1,3.9-1.2,5.7c-1.3,1.7-3.1,2.9-4.7,3.9c-4.2,2.4-8.7,4.1-13.3,5.3
		C27.9,155.1,27.8,155.3,27.5,155.5z"/>
</g>
<path class="st4" d="M106.3,144.8v0.8l-0.1,11.9l0,1.3c0,2-0.8,3.9-2.2,5.2c-1.3,1.3-3.2,2.2-5.2,2.2c-4.1,0-7.4-3.3-7.5-7.4
	L91.1,144L106.3,144.8z"/>
<path class="st2" d="M106.3,145.5l-0.1,11.9c-6.6-2.7-9.4-9.9-9.4-9.9L106.3,145.5z"/>
<path class="st4" d="M108.9,124.7c2.4,2.9,9.3,19,2.3,24.6c-7.9,6.2-20-4-20-4l-1.6-18.8l10.5-2.8L108.9,124.7z"/>
<path class="st2" d="M84.3,123.7c0,0-23.2,12.1-4.3,47c2.4,4.5,7.8,6.4,12.4,4.3c4.9-2.4,6.8-8.4,4.1-13.2
	c-3.1-5.5-6.1-12.6-4.8-17.8L84.3,123.7z"/>
<path class="st8" d="M90.9,133.8c2.4-2.4,2.4-6.4,0-8.9c-2.4-2.4-6.4-2.4-8.9,0c-2.4,2.4-2.4,6.4,0,8.9S88.4,136.3,90.9,133.8z"/>
<path class="st2" d="M94.2,136.9c-0.7-3.9-1.1-6.6,2.9-8.6c0,0,13.9,2.5,16.6-2.7c2.7-5.3-1.4-13.6-9.9-7.8
	c-21.7-4.3-24.6,16.1-18.1,22.9l6.5-1C93.5,139.5,94.4,138.2,94.2,136.9z"/>
<path class="st2" d="M105,137.9c0.5,0,0.9-0.4,0.9-0.9c0-0.5-0.4-0.9-0.9-0.9c-0.5,0-0.9,0.4-0.9,0.9
	C104.1,137.5,104.5,137.9,105,137.9z"/>
<path class="st2" d="M111.3,134.8c0.5,0,0.9-0.4,0.9-0.9c0-0.5-0.4-0.9-0.9-0.9c-0.5,0-0.9,0.4-0.9,0.9
	C110.3,134.4,110.7,134.8,111.3,134.8z"/>
<path class="st2" d="M110.6,139.8c-0.1,0-0.1,0-0.2-0.1c-0.1-0.1-0.1-0.3,0-0.4c0.4-0.4,0.8-0.9,0.6-1.3c-0.2-0.4-0.9-0.6-1.3-0.6
	c-0.7,0-1.1-1.3-1.2-1.6c0-0.1,0-0.3,0.2-0.3c0.1,0,0.3,0,0.3,0.2c0.1,0.6,0.4,1.2,0.6,1.2c0.4,0,1.4,0.2,1.8,0.9
	c0.2,0.5,0,1.2-0.7,1.9C110.7,139.8,110.7,139.8,110.6,139.8z"/>
<path class="st2" d="M110.6,143.3c0,0-0.1,0-0.1,0c-1.8-1.2-3.5-0.2-3.5-0.2c-0.1,0.1-0.3,0-0.4-0.1c-0.1-0.1,0-0.3,0.1-0.4
	c0.1,0,2.1-1.2,4.1,0.2c0.1,0.1,0.1,0.2,0.1,0.4C110.8,143.3,110.7,143.3,110.6,143.3z"/>
<path class="st2" d="M104.6,132.9c0.5,1-0.4,1.2-1.5,1.8c-1.1,0.6-2.2,0.8-2.4,0.3c-0.2-0.5,0.4-1.3,1.5-1.9
	C103.3,132.6,104.2,132.2,104.6,132.9z"/>
<path class="st2" d="M108.5,131.1c0.2,0.9,0.9,0.5,1.8,0.2c1-0.3,1.7-0.7,1.6-1.2c-0.1-0.4-1-0.6-1.9-0.3
	C109.1,130.2,108.3,130.4,108.5,131.1z"/>
<path class="st9" d="M102.6,143.3c1.1-1,1.2-2.8,0.2-3.9c-1-1.1-2.8-1.2-3.9-0.2c-1.1,1-1.2,2.8-0.2,3.9
	C99.7,144.2,101.4,144.3,102.6,143.3z"/>
<path class="st4" d="M93.7,143.8c1.2-1.6,0.8-4.1-1.1-5.5c-1.8-1.4-4.3-1.3-5.6,0.4c-1.2,1.6-0.8,4.1,1.1,5.5
	C89.9,145.6,92.4,145.5,93.7,143.8z"/>
<path class="st2" d="M92,142.7c-0.1,0-0.3-0.1-0.3-0.3c0-0.8-0.4-1.5-1-1.9c-0.6-0.4-1.2-0.5-1.7-0.2c-0.1,0-0.3,0-0.3-0.1
	c0-0.1,0-0.3,0.1-0.3c0.7-0.3,1.5-0.2,2.2,0.3c0.8,0.5,1.2,1.4,1.2,2.4C92.2,142.5,92.1,142.7,92,142.7z"/>
<path class="st2" d="M54.3,161.7L44.8,172l0.4,0.4l9.5-10.2L54.3,161.7z"/>
<path class="st2" d="M121.1,205.8l-0.2-0.6c6.9-2.1,13.6-4.6,19.7-12.2l0.5,0.4C134.8,201.1,128.1,203.7,121.1,205.8z"/>
<path class="st0" d="M125.2,182.6H66.6c-2.1,0-3.8,1.8-3.8,4.1v41.9c0,2.3,1.7,4.1,3.8,4.1h58.7c2.1,0,3.8-1.9,3.8-4.1v-41.9
	C129.1,184.4,127.4,182.6,125.2,182.6z"/>
<path class="st10" d="M99,205c0.2,0,0.4,0.2,0.4,0.4v4.4c0,0.2-0.2,0.4-0.4,0.4h-6.2c-0.2,0-0.4-0.2-0.4-0.4v-4.4
	c0-0.2,0.2-0.4,0.4-0.4H99z M99,203.8h-6.2c-0.9,0-1.6,0.7-1.6,1.6v4.4c0,0.9,0.7,1.6,1.6,1.6H99c0.9,0,1.6-0.7,1.6-1.6v-4.4
	C100.6,204.5,99.9,203.8,99,203.8z"/>
</svg>
